<svg style="fill:gray" id="Layer_1" data-name="Layer 1" xmlns="http://www.w3.org/2000/svg" viewBox="0 0 912 901.71"><title>facebook-icon</title><path d="M575.53,950.86V639.56c28.48,0,55.87-.69,83.19.26,16.26.57,23.76-3.71,25.47-21.7,2.81-29.61,9.13-58.88,14-88.29,4.31-26,2.85-27.85-24.61-28-26.78-.18-53.58-.56-80.34.12-13.8.35-20.25-3.86-19.65-18.67.89-22-.47-44.14.63-66.15,2.14-42.65,15.22-57.38,56.65-65.23A178.52,178.52,0,0,1,659,349.36c49.52-1.39,46.8,10.38,47-46.26q.06-18.91,0-37.81c-.08-31.68-1.24-36-31.64-36.43-46.82-.58-95.48-3.83-140.14,7.14-64.86,15.95-105.54,78.12-107,145.37-.84,39.14-.15,78.32-.15,120.42-33.14,0-63.64.63-94.09-.24-18.41-.52-24.92,6.37-24.08,25,1.36,29.87,1.56,59.92-.05,89.76-1.06,19.61,6.84,24.16,24.51,23.56,30.42-1,60.9-.29,92.39-.29v309.9C284.42,947.89,83.92,795.9,50.27,582.83,3.6,287.32,225.44,72.75,450,51.41,735.28,24.28,958,244.59,956,507.06c-1,133.39-53,245.61-150.9,336.65C741.73,902.61,641.89,950,575.53,950.86Z" transform="translate(-44 -49.14)"/></svg>