<svg id="Layer_1" data-name="Layer 1" xmlns="http://www.w3.org/2000/svg" viewBox="0 0 880 897.1"><title>google-icon</title><path d="M799.76,163.56l-110,119.72c-40.79-35.33-84.08-57.87-134.37-65.32-201.24-29.82-325,135.58-328.88,262.23-3.88,128.14,48.77,223,161.14,280.09,124,63,319.26,28.23,373.51-151.59,1.69-5.59,2.15-11.55,3.6-19.7h-253V438.21c5.57-.54,9.37-1.22,13.17-1.22,135.49-.06,271,0,413.21,0,.12,45.34,4.32,90-.39,133.75C922,717.57,850.62,829.89,719.55,900.9,665.84,930,607,942,546,946.81c-79.7,6.23-156.7-3.6-227.69-39.69C144.8,818.93,55.49,677.2,60.18,481.08,65,277.47,216.9,96.86,417.83,60.37,562.69,34.06,698.48,65.24,799.76,163.56Z" transform="translate(-60 -51.45)"/></svg>