<svg id="Layer_1" data-name="Layer 1" xmlns="http://www.w3.org/2000/svg" viewBox="0 0 859.81 860.1"><title>linkedin-icon</title><path d="M499,930q-177.73,0-355.45,0c-52.29-.06-73.39-21-73.4-72.89q-.1-357.92,0-715.84c0-48.53,21.64-71,70.81-71q359.15-.51,718.31,0c47.56.08,70.56,24.5,70.58,72.21q.11,356.69,0,713.37c0,51.83-21.8,74.07-72.94,74.14Q678,930.19,499,930Zm37.51-491.34c-.84-8.36-2.14-12.54-1.51-16.4,3.91-23.86-7.93-29.87-29.41-28.85-26.25,1.25-52.6.61-78.91.29-14.22-.17-20.38,5-20.32,20.29q.69,188.67.06,377.35c0,15.05,5.85,20.43,20.48,20.15,30.41-.58,60.85-.84,91.24.1,17.15.53,23.12-5.8,22.86-22.95Q539.83,711,541,633.3c.39-26.19.88-52.74,5.33-78.44,6.89-39.73,30-55.37,72.42-53.62C652.9,502.66,668,517.91,674,558c1.94,13,3.59,26.13,3.75,39.22.78,63.28,1.46,126.58,1.14,189.86-.09,17.71,5.18,25.37,23.94,24.58,28.72-1.2,57.55-.92,86.3-.1,16.05.46,22.05-5.9,21.81-21.66-1.37-89.55-.39-179.19-4.15-268.63-1.81-43.11-15.84-84.7-53.57-111.75-46.2-33.13-132.85-33.67-180.2-2C561,415.53,550.85,426.3,536.51,438.68ZM202.26,394.3c-1.76,5.5-3.14,7.81-3.15,10.12-.22,129.74-.2,259.48-.61,389.22,0,14.72,7.25,18,19.9,17.82,28.74-.37,57.55-1.35,86.2.32,22.09,1.28,28.43-7.27,28.1-28.37-1-63.22-.35-126.46-.35-189.69,0-58.3.51-116.62-.6-174.9-.16-8.25-7.91-23.21-12.72-23.44C279.91,393.45,240.66,394.3,202.26,394.3ZM340.53,265.95c-.4-43.31-33.44-76-76.7-76-41.93.06-76,35.24-75.33,77.7.68,41,35.19,75.28,75.83,75.29C306.29,343,340.93,308,340.53,265.95Z" transform="translate(-70.09 -69.95)"/></svg>