<svg style="fill:rgb(29, 114, 224);" id="Layer_1" data-name="Layer 1" xmlns="http://www.w3.org/2000/svg" viewBox="0 0 740.86 847.41"><title>user-icon</title><path d="M499.79,923.54c-94.5,0-189-.16-283.49.12-23,.07-43.78-5-61.51-20.51-14.35-12.54-24.65-28.45-24.87-46.84-.51-41.07-1.19-82.56,3.87-123.17C141,675.29,174.93,631.76,220,596.67c45.75-35.6,98.89-46.39,155.15-42.23,16.75,1.24,32.81,10.37,49.44,15,56.87,15.85,113.74,14.12,168.83-6.1,24.52-9,48.48-10.71,73.42-8.79,104.9,8,192.27,93.88,201.23,198.82,2.57,30.09,2.72,60.52,1.87,90.73-1.34,47.38-36.59,79.88-85.47,79.59C689.59,923.15,594.69,923.54,499.79,923.54Z" transform="translate(-129.57 -76.29)"/><path d="M287.65,287.46c-.9-116.67,98.43-212.49,212-211.15C617,77.69,710.63,171.51,710.61,288.58c0,113-92.65,210.63-211.4,210.77C381.66,499.49,286.84,402.4,287.65,287.46Z" transform="translate(-129.57 -76.29)"/></svg>